<svg width="40" height="40" viewBox="0 0 40 40" fill="none" xmlns="http://www.w3.org/2000/svg">
<g clip-path="url(#clip0_22_127)">
<path d="M20 40C31.0457 40 40 31.0457 40 20C40 8.95431 31.0457 0 20 0C8.95431 0 0 8.95431 0 20C0 31.0457 8.95431 40 20 40Z" fill="black"/>
<path d="M31.0534 13.1465C30.345 13.4512 29.6 13.6627 28.8372 13.7758C29.1929 13.7758 29.7127 13.0781 29.9316 12.8182C30.2562 12.4112 30.5021 11.9473 30.6566 11.4502C30.6566 11.4502 30.6566 11.3544 30.6566 11.3271C30.6379 11.3163 30.6167 11.3106 30.5951 11.3106C30.5735 11.3106 30.5522 11.3163 30.5335 11.3271C29.7077 11.7678 28.8299 12.1033 27.9207 12.3257C27.8932 12.3401 27.8627 12.3476 27.8317 12.3476C27.8008 12.3476 27.7703 12.3401 27.7429 12.3257C27.6723 12.2373 27.5945 12.155 27.5103 12.0795C27.135 11.7577 26.7099 11.499 26.2517 11.3134C25.6371 11.0601 24.9723 10.9524 24.3092 10.9988C23.664 11.0406 23.0347 11.2177 22.4624 11.5186C21.8874 11.8183 21.38 12.2327 20.9713 12.7361C20.5472 13.256 20.2435 13.8633 20.0821 14.5145C19.959 15.1332 19.959 15.77 20.0821 16.3886C20.0821 16.4981 20.0821 16.5118 19.9863 16.4981C16.5241 16.1436 13.3189 14.5093 10.9986 11.9153C10.8892 11.8059 10.8345 11.8059 10.7524 11.9153C10.2867 12.7784 10.1111 13.7685 10.2515 14.7391C10.3919 15.7098 10.841 16.6095 11.5322 17.3052C11.71 17.4694 11.8878 17.6335 12.0794 17.784C11.4751 17.7361 10.8855 17.5736 10.342 17.3052C10.2463 17.2368 10.1915 17.3052 10.1778 17.3873C10.1645 17.5603 10.1645 17.7341 10.1778 17.9071C10.2842 18.7157 10.6039 19.4814 11.1039 20.1257C11.6039 20.77 12.2664 21.2696 13.0233 21.5733C13.2055 21.6593 13.3989 21.7191 13.5978 21.7512C13.0368 21.8513 12.4625 21.8513 11.9015 21.7512C11.7784 21.7512 11.7237 21.7512 11.7784 21.9153C12.0664 22.6777 12.5465 23.3529 13.172 23.8753C13.7975 24.3978 14.5473 24.7499 15.3488 24.8975C15.513 24.8975 15.6772 24.8975 15.8276 24.8975C15.4309 25.5131 14.0356 25.9646 13.3926 26.2655C12.2058 26.6901 10.9412 26.8535 9.68539 26.7443C9.48019 26.7443 9.43915 26.7443 9.38443 26.7443C9.32971 26.7443 9.38443 26.8264 9.38443 26.8674C9.6317 27.0354 9.88739 27.1907 10.1505 27.3326C10.9383 27.7484 11.7684 28.0786 12.6266 28.3175C14.8385 28.9832 17.1863 29.0569 19.4356 28.5312C21.6849 28.0055 23.7569 26.8988 25.4446 25.3216C26.6605 24.0063 27.6005 22.4607 28.209 20.776C28.8176 19.0914 29.0823 17.3018 28.9877 15.5131C28.9877 15.3763 29.1519 15.2943 29.2476 15.2259C29.9155 14.7065 30.5052 14.0937 30.9986 13.4064C31.0725 13.308 31.1111 13.1875 31.1081 13.0644C31.1081 13.0644 31.1354 13.1192 31.0534 13.1465Z" fill="white"/>
</g>
<defs>
<clipPath id="clip0_22_127">
<rect width="40" height="40" fill="white"/>
</clipPath>
</defs>
</svg>
