<svg width="40" height="40" viewBox="0 0 40 40" fill="none" xmlns="http://www.w3.org/2000/svg">
<g clip-path="url(#clip0_22_70)">
<path d="M40 20C40 17.3742 39.4826 14.7741 38.4773 12.3484C37.4721 9.92266 35.9987 7.71877 34.1413 5.86269C32.284 4.00661 30.0791 2.53472 27.6526 1.53112C25.2262 0.527515 22.6258 0.0118793 20 0.0136766C14.698 0.0136753 9.61303 2.11894 5.8627 5.86671C2.11236 9.61448 0.00362651 14.698 0 20C0.00036552 24.7635 1.7009 29.3704 4.79556 32.9917C7.89022 36.613 12.1758 39.0109 16.881 39.7538V25.7729H11.8057V20H16.881V15.5951C16.881 10.5746 19.8632 7.81121 24.4323 7.81121C25.9306 7.83151 27.4256 7.95951 28.9056 8.19425V13.119H26.3885C25.9581 13.0615 25.5202 13.1019 25.1075 13.2371C24.6948 13.3724 24.318 13.599 24.005 13.9001C23.6921 14.2012 23.4511 14.569 23.3001 14.9762C23.149 15.3834 23.0918 15.8194 23.1327 16.2517V20H28.673L27.7839 25.7729H23.1327V39.7538C27.8354 39.0079 32.1177 36.6088 35.2096 32.9878C38.3015 29.3668 40.0001 24.7615 40 20Z" fill="black"/>
<path d="M27.7838 25.7732L28.673 20.0003H23.1326V16.252C23.0917 15.8196 23.149 15.3836 23.3 14.9765C23.451 14.5693 23.692 14.2015 24.0049 13.9004C24.3179 13.5993 24.6947 13.3726 25.1074 13.2374C25.5201 13.1022 25.958 13.0618 26.3884 13.1193H28.9055V8.2219C27.4255 7.98717 25.9306 7.85916 24.4322 7.83887C19.8631 7.83887 16.8809 10.5748 16.8809 15.6227V20.0276H11.8057V25.8006H16.8809V39.7814C17.9123 39.9465 18.9553 40.0289 19.9999 40.0276C21.049 40.0289 22.0966 39.9465 23.1326 39.7814V25.7732H27.7838Z" fill="white"/>
</g>
<defs>
<clipPath id="clip0_22_70">
<rect width="40" height="40" fill="white"/>
</clipPath>
</defs>
</svg>
