<svg width="40" height="40" viewBox="0 0 40 40" fill="none" xmlns="http://www.w3.org/2000/svg">
<g clip-path="url(#clip0_22_117)">
<path d="M20 40C31.0457 40 40 31.0457 40 20C40 8.95431 31.0457 0 20 0C8.95431 0 0 8.95431 0 20C0 31.0457 8.95431 40 20 40Z" fill="black"/>
<path d="M26.2107 12.4346C25.9402 12.4346 25.6757 12.5148 25.4508 12.6651C25.2258 12.8154 25.0505 13.0291 24.9469 13.2791C24.8434 13.529 24.8163 13.8041 24.8691 14.0694C24.9218 14.3348 25.0521 14.5786 25.2434 14.7699C25.4348 14.9612 25.6785 15.0915 25.9439 15.1443C26.2093 15.197 26.4843 15.1699 26.7343 15.0664C26.9842 14.9629 27.1979 14.7875 27.3482 14.5626C27.4985 14.3376 27.5787 14.0731 27.5787 13.8026C27.5787 13.4397 27.4346 13.0918 27.1781 12.8352C26.9215 12.5787 26.5736 12.4346 26.2107 12.4346Z" fill="white"/>
<path d="M20.0957 14.2276C18.9501 14.2249 17.8294 14.5623 16.8757 15.1971C15.922 15.8319 15.1782 16.7355 14.7385 17.7934C14.2988 18.8513 14.1831 20.0159 14.4059 21.1397C14.6288 22.2635 15.1802 23.2958 15.9903 24.1059C16.8004 24.916 17.8327 25.4674 18.9564 25.6902C20.0802 25.913 21.2448 25.7973 22.3028 25.3576C23.3607 24.918 24.2643 24.1742 24.8991 23.2205C25.5339 22.2668 25.8713 21.1461 25.8686 20.0005C25.865 18.4705 25.2556 17.0042 24.1737 15.9224C23.0919 14.8405 21.6257 14.2312 20.0957 14.2276ZM20.0957 23.7077C19.3625 23.7077 18.6457 23.4903 18.036 23.0829C17.4264 22.6756 16.9512 22.0966 16.6706 21.4192C16.39 20.7418 16.3166 19.9964 16.4597 19.2772C16.6027 18.5581 16.9558 17.8975 17.4743 17.379C17.9927 16.8606 18.6533 16.5075 19.3724 16.3645C20.0915 16.2214 20.837 16.2948 21.5144 16.5754C22.1918 16.856 22.7708 17.3312 23.1781 17.9408C23.5855 18.5505 23.8029 19.2672 23.8029 20.0005C23.7957 20.9789 23.4019 21.9149 22.7075 22.6042C22.013 23.2936 21.0742 23.6804 20.0957 23.6804V23.7077Z" fill="white"/>
<path d="M24.6922 31.71H15.3352C13.4654 31.71 11.6721 30.9682 10.3487 29.6474C9.02529 28.3266 8.27999 26.5346 8.27637 24.6649V15.2942C8.27998 13.4268 9.0234 11.6369 10.3438 10.3165C11.6643 8.99606 13.4541 8.25264 15.3215 8.24902H24.6922C26.5596 8.25264 28.3495 8.99606 29.6699 10.3165C30.9903 11.6369 31.7338 13.4268 31.7374 15.2942V24.6649C31.7338 26.5323 30.9903 28.3221 29.6699 29.6426C28.3495 30.963 26.5596 31.7064 24.6922 31.71ZM15.3352 10.4515C14.0519 10.4551 12.8223 10.9665 11.9149 11.8739C11.0075 12.7813 10.4961 14.0109 10.4925 15.2942V24.6649C10.4961 25.9469 11.0079 27.1751 11.9157 28.0803C12.8235 28.9856 14.0532 29.4939 15.3352 29.4939H24.6922C25.9742 29.4939 27.2039 28.9856 28.1117 28.0803C29.0195 27.1751 29.5313 25.9469 29.5349 24.6649V15.2942C29.5313 14.0109 29.0199 12.7813 28.1125 11.8739C27.2051 10.9665 25.9755 10.4551 24.6922 10.4515H15.3352Z" fill="white"/>
</g>
<defs>
<clipPath id="clip0_22_117">
<rect width="40" height="40" fill="white"/>
</clipPath>
</defs>
</svg>
