<svg width="40" height="40" viewBox="0 0 40 40" fill="none" xmlns="http://www.w3.org/2000/svg">
<g clip-path="url(#clip0_22_130)">
<path d="M20 40C31.0457 40 40 31.0457 40 20C40 8.95431 31.0457 0 20 0C8.95431 0 0 8.95431 0 20C0 31.0457 8.95431 40 20 40Z" fill="black"/>
<path d="M21.1081 23.5838C21.1278 24.1179 21.0128 24.6485 20.7738 25.1266C20.5347 25.6047 20.1793 26.015 19.7401 26.3197C19.2938 26.6427 18.7936 26.8836 18.2627 27.0311C17.6801 27.1979 17.0767 27.2808 16.4706 27.2773H9.50757V12.8861H17.223C17.6994 12.8787 18.1699 12.9916 18.591 13.2144C18.9921 13.4229 19.346 13.7116 19.6307 14.0626C19.9153 14.4142 20.1374 14.8122 20.2873 15.239C20.4419 15.6785 20.5206 16.1411 20.5199 16.607C20.5212 17.3038 20.3371 17.9885 19.9864 18.5906C19.6406 19.2032 19.1019 19.6841 18.4542 19.9586C19.2533 20.1686 19.9553 20.6482 20.4414 21.3163C20.9275 21.9844 21.1679 22.7999 21.1218 23.6248L21.1081 23.5838ZM12.2983 15.2937V18.9189H15.9782C16.4314 18.927 16.8694 18.7548 17.1957 18.4401C17.3674 18.2582 17.4998 18.0428 17.5845 17.8075C17.6692 17.5721 17.7045 17.3218 17.6882 17.0721C17.7069 16.8256 17.6766 16.5778 17.5991 16.343C17.5216 16.1082 17.3985 15.8911 17.2367 15.7041C17.0937 15.5466 16.918 15.4221 16.7219 15.3394C16.5258 15.2567 16.314 15.2178 16.1013 15.2253L12.2983 15.2937ZM18.2901 23.0639C18.2915 22.8125 18.2499 22.5626 18.167 22.3252C18.0793 22.0994 17.9595 21.8875 17.8113 21.6959C17.6809 21.5372 17.5234 21.4029 17.3462 21.2992C17.1367 21.1999 16.9077 21.1484 16.6759 21.1487H12.3667V24.9381H16.5391C16.7804 24.9413 17.02 24.8956 17.2433 24.804C17.4666 24.7123 17.6691 24.5764 17.8386 24.4045C18.0048 24.2312 18.135 24.0266 18.2217 23.8026C18.2942 23.5636 18.3175 23.3123 18.2901 23.0639Z" fill="white"/>
<path d="M27.1818 27.3047C26.4129 27.3175 25.6495 27.1732 24.9383 26.8806C24.3014 26.6228 23.7241 26.2373 23.2418 25.748C22.7595 25.2586 22.3825 24.6757 22.1339 24.0352C21.8823 23.3897 21.7525 22.7033 21.7509 22.0106C21.7422 21.2991 21.8723 20.5928 22.1339 19.9312C22.37 19.2895 22.7344 18.7026 23.2048 18.2063C23.6752 17.7101 24.2417 17.3148 24.8699 17.0448C25.5942 16.7464 26.3712 16.5975 27.1545 16.607C27.9245 16.5962 28.6884 16.7452 29.398 17.0448C30.4083 17.5016 31.2507 18.2627 31.8075 19.2217C32.3642 20.1807 32.6075 21.2896 32.5033 22.3936C32.5189 22.5254 32.5189 22.6585 32.5033 22.7903H24.5279C24.5596 23.1662 24.6617 23.5328 24.8289 23.871C24.9775 24.1789 25.1869 24.4534 25.4445 24.6781C25.6865 24.9002 25.9701 25.0723 26.2789 25.1843C26.5935 25.3036 26.9274 25.3639 27.2639 25.3621C27.7858 25.3665 28.2998 25.2345 28.755 24.9791C29.1818 24.7627 29.5203 24.4049 29.7126 23.9668L31.9698 24.5961C31.5688 25.4093 30.9356 26.0853 30.1503 26.5386C29.2503 27.0627 28.223 27.3278 27.1818 27.3047ZM29.9178 21.094C29.8825 20.3856 29.5735 19.7185 29.056 19.2335C28.5579 18.773 27.9011 18.523 27.2229 18.5359C26.5483 18.5208 25.8949 18.7713 25.4034 19.2335C25.1666 19.4673 24.9722 19.7404 24.8289 20.0406C24.6706 20.3701 24.5821 20.7287 24.569 21.094H29.9178Z" fill="white"/>
<path d="M23.7209 13.5703H30.5609V15.294H23.7209V13.5703Z" fill="white"/>
</g>
<defs>
<clipPath id="clip0_22_130">
<rect width="40" height="40" fill="white"/>
</clipPath>
</defs>
</svg>
