<svg width="335" height="45" viewBox="0 0 335 45" fill="none" xmlns="http://www.w3.org/2000/svg">
<g filter="url(#filter0_d_167_632)">
<path d="M4.80121 36V32.4969L22.4114 6.74436H5.60597V2.86254H27.5714V6.27097L9.96118 32.0235H28.2341V36H4.80121ZM33.9241 36V0.968972H38.1846V15.3128C39.0683 14.0188 40.1886 12.9458 41.5457 12.0937C42.9028 11.2416 44.4965 10.8155 46.327 10.8155C49.1042 10.8155 51.1713 11.6519 52.5284 13.3245C53.917 14.9972 54.6113 17.2063 54.6113 19.952V36H50.3508V20.4254C50.3508 18.6581 49.9405 17.2379 49.12 16.1649C48.2994 15.0918 47.1475 14.5553 45.6642 14.5553C44.2125 14.5553 42.8239 15.0761 41.4984 16.1175C40.2044 17.1274 39.0998 18.3267 38.1846 19.7153V36H33.9241ZM71.3598 36.5681C69.3084 36.5681 67.4464 36.0473 65.7738 35.0059C64.1011 33.9644 62.7598 32.4969 61.7499 30.6033C60.7716 28.6782 60.2824 26.4217 60.2824 23.8338C60.2824 21.3722 60.7716 19.163 61.7499 17.2063C62.7598 15.2496 64.1327 13.7032 65.8684 12.5671C67.6358 11.3994 69.6556 10.8155 71.9279 10.8155C73.348 10.8155 74.6262 11.068 75.7623 11.573C76.93 12.0463 77.9399 12.646 78.792 13.3718V11.3836H82.6739V30.0353C82.6739 31.2345 82.9579 32.0235 83.526 32.4022C84.1256 32.7494 84.7726 32.923 85.4669 32.923L84.5674 36.2367C81.5377 36.2367 79.7073 35.0059 79.0761 32.5442C78.3502 33.5541 77.3561 34.4851 76.0937 35.3373C74.8629 36.1578 73.2849 36.5681 71.3598 36.5681ZM72.3066 32.7809C73.5058 32.7809 74.642 32.4969 75.715 31.9288C76.788 31.3292 77.6875 30.5875 78.4133 29.7039V16.4962C77.5612 15.8966 76.6144 15.4232 75.573 15.0761C74.5631 14.6973 73.4901 14.508 72.3539 14.508C70.8391 14.508 69.4978 14.9025 68.3301 15.6915C67.1939 16.4489 66.2945 17.5219 65.6317 18.9105C64.969 20.2676 64.6376 21.8614 64.6376 23.6918C64.6376 25.4591 64.969 27.0371 65.6317 28.4257C66.2945 29.7828 67.2097 30.8558 68.3774 31.6448C69.5451 32.4022 70.8548 32.7809 72.3066 32.7809ZM91.1565 36V11.3836H95.275V15.5021C96.1586 14.1766 97.279 13.072 98.6361 12.1884C100.025 11.2731 101.666 10.8155 103.559 10.8155C106.337 10.8155 108.404 11.6519 109.761 13.3245C111.149 14.9972 111.844 17.2063 111.844 19.952V36H107.583V20.4254C107.583 18.6581 107.157 17.2379 106.305 16.1649C105.484 15.0918 104.333 14.5553 102.849 14.5553C101.398 14.5553 100.025 15.0761 98.7307 16.1175C97.4368 17.1274 96.3322 18.3267 95.417 19.7153V36H91.1565ZM119.172 36V11.3836H123.29V15.5021C124.174 14.1766 125.294 13.072 126.651 12.1884C128.04 11.2731 129.681 10.8155 131.575 10.8155C134.352 10.8155 136.419 11.6519 137.776 13.3245C139.165 14.9972 139.859 17.2063 139.859 19.952V36H135.598V20.4254C135.598 18.6581 135.172 17.2379 134.32 16.1649C133.5 15.0918 132.348 14.5553 130.864 14.5553C129.413 14.5553 128.04 15.0761 126.746 16.1175C125.452 17.1274 124.347 18.3267 123.432 19.7153V36H119.172ZM156.607 36.5681C154.556 36.5681 152.694 36.0473 151.021 35.0059C149.349 33.9644 148.007 32.4969 146.998 30.6033C146.019 28.6782 145.53 26.4217 145.53 23.8338C145.53 21.3722 146.019 19.163 146.998 17.2063C148.007 15.2496 149.38 13.7032 151.116 12.5671C152.883 11.3994 154.903 10.8155 157.175 10.8155C158.596 10.8155 159.874 11.068 161.01 11.573C162.178 12.0463 163.188 12.646 164.04 13.3718V11.3836H167.921V30.0353C167.921 31.2345 168.205 32.0235 168.774 32.4022C169.373 32.7494 170.02 32.923 170.714 32.923L169.815 36.2367C166.785 36.2367 164.955 35.0059 164.324 32.5442C163.598 33.5541 162.604 34.4851 161.341 35.3373C160.11 36.1578 158.533 36.5681 156.607 36.5681ZM157.554 32.7809C158.753 32.7809 159.89 32.4969 160.963 31.9288C162.036 31.3292 162.935 30.5875 163.661 29.7039V16.4962C162.809 15.8966 161.862 15.4232 160.821 15.0761C159.811 14.6973 158.738 14.508 157.602 14.508C156.087 14.508 154.745 14.9025 153.578 15.6915C152.442 16.4489 151.542 17.5219 150.879 18.9105C150.217 20.2676 149.885 21.8614 149.885 23.6918C149.885 25.4591 150.217 27.0371 150.879 28.4257C151.542 29.7828 152.457 30.8558 153.625 31.6448C154.793 32.4022 156.102 32.7809 157.554 32.7809ZM191.07 36V2.86254H197.366L206.55 23.8338L215.592 2.86254H222.03V36H217.533V8.59059L208.68 28.5204H204.23L195.33 8.59059V36H191.07ZM238.124 36.5681C236.704 36.5681 235.363 36.2683 234.101 35.6686C232.838 35.069 231.813 34.1064 231.024 32.7809C230.235 31.4239 229.84 29.625 229.84 27.3843V11.3836H234.101V26.8162C234.101 28.7413 234.511 30.2246 235.331 31.2661C236.152 32.276 237.351 32.7809 238.929 32.7809C240.223 32.7809 241.47 32.5285 242.669 32.0235C243.9 31.487 244.989 30.7769 245.935 29.8932V11.3836H250.196V29.6092C250.196 30.9663 250.48 31.8657 251.048 32.3075C251.648 32.7178 252.295 32.923 252.989 32.923L252.089 36.2367C249.154 36.2367 247.34 35.069 246.645 32.7336C245.541 33.8697 244.263 34.8007 242.811 35.5266C241.359 36.2209 239.797 36.5681 238.124 36.5681ZM244.563 7.26509C243.774 7.26509 243.095 6.98105 242.527 6.41298C241.99 5.84491 241.722 5.18216 241.722 4.42473C241.722 3.57263 241.975 2.8941 242.48 2.38915C242.985 1.85264 243.679 1.58438 244.563 1.58438C245.352 1.58438 246.014 1.86842 246.551 2.43649C247.119 3.00456 247.403 3.66731 247.403 4.42473C247.403 5.27684 247.15 5.97115 246.645 6.50766C246.141 7.01261 245.446 7.26509 244.563 7.26509ZM235.947 7.26509C235.158 7.26509 234.479 6.98105 233.911 6.41298C233.375 5.84491 233.106 5.18216 233.106 4.42473C233.106 3.57263 233.359 2.8941 233.864 2.38915C234.369 1.85264 235.063 1.58438 235.947 1.58438C236.736 1.58438 237.399 1.86842 237.935 2.43649C238.503 3.00456 238.787 3.66731 238.787 4.42473C238.787 5.27684 238.535 5.97115 238.03 6.50766C237.525 7.01261 236.83 7.26509 235.947 7.26509ZM266.126 36.5681C264.675 36.5681 263.365 36.2998 262.197 35.7633C261.029 35.1952 260.098 34.2958 259.404 33.065C258.741 31.8341 258.41 30.2404 258.41 28.2837V0.968972H262.671V27.8577C262.671 29.5619 263.018 30.8242 263.712 31.6448C264.438 32.4653 265.432 32.8756 266.694 32.8756C267.294 32.8756 267.878 32.8125 268.446 32.6863C269.046 32.5285 269.551 32.3549 269.961 32.1655L271.002 35.6213C270.434 35.8738 269.724 36.0947 268.872 36.284C268.051 36.4734 267.136 36.5681 266.126 36.5681ZM282.029 36.5681C280.578 36.5681 279.268 36.2998 278.1 35.7633C276.932 35.1952 276.001 34.2958 275.307 33.065C274.644 31.8341 274.313 30.2404 274.313 28.2837V0.968972H278.574V27.8577C278.574 29.5619 278.921 30.8242 279.615 31.6448C280.341 32.4653 281.335 32.8756 282.597 32.8756C283.197 32.8756 283.781 32.8125 284.349 32.6863C284.949 32.5285 285.454 32.3549 285.864 32.1655L286.905 35.6213C286.337 35.8738 285.627 36.0947 284.775 36.284C283.954 36.4734 283.039 36.5681 282.029 36.5681ZM300.068 36.5681C296.533 36.5681 293.725 35.4477 291.642 33.207C289.59 30.9347 288.565 27.763 288.565 23.6918C288.565 21.2302 289.022 19.0368 289.938 17.1116C290.884 15.155 292.194 13.6243 293.867 12.5197C295.539 11.3836 297.48 10.8155 299.689 10.8155C302.056 10.8155 304.013 11.3363 305.559 12.3777C307.137 13.3876 308.321 14.7605 309.11 16.4962C309.899 18.232 310.293 20.1414 310.293 22.2243C310.293 23.3289 310.246 24.4019 310.151 25.4434H292.92C293.204 27.7472 294.009 29.5461 295.334 30.84C296.66 32.134 298.411 32.7809 300.589 32.7809C302.009 32.7809 303.287 32.6389 304.423 32.3549C305.559 32.0393 306.648 31.6448 307.69 31.1714L308.684 34.8165C307.548 35.3215 306.27 35.7317 304.849 36.0473C303.429 36.3945 301.835 36.5681 300.068 36.5681ZM292.873 21.9876H306.364C306.364 19.5891 305.765 17.7428 304.565 16.4489C303.366 15.155 301.709 14.508 299.595 14.508C297.764 14.508 296.249 15.155 295.05 16.4489C293.851 17.7113 293.125 19.5575 292.873 21.9876ZM315.972 36V11.3836H320.09V16.7329C320.5 15.6915 321.053 14.7289 321.747 13.8452C322.441 12.93 323.309 12.2041 324.351 11.6676C325.392 11.0996 326.607 10.8155 327.996 10.8155C328.469 10.8155 328.942 10.8471 329.416 10.9102C329.889 10.9418 330.284 11.0049 330.599 11.0996L329.321 15.5021C328.722 15.2496 328.011 15.1234 327.191 15.1234C326.023 15.1234 324.903 15.4548 323.83 16.1175C322.788 16.7803 321.92 17.806 321.226 19.1946C320.563 20.5832 320.232 22.3505 320.232 24.4966V36H315.972Z" fill="#070707"/>
</g>
<defs>
<filter id="filter0_d_167_632" x="0.80127" y="0.96875" width="333.798" height="43.5996" filterUnits="userSpaceOnUse" color-interpolation-filters="sRGB">
<feFlood flood-opacity="0" result="BackgroundImageFix"/>
<feColorMatrix in="SourceAlpha" type="matrix" values="0 0 0 0 0 0 0 0 0 0 0 0 0 0 0 0 0 0 127 0" result="hardAlpha"/>
<feOffset dy="4"/>
<feGaussianBlur stdDeviation="2"/>
<feComposite in2="hardAlpha" operator="out"/>
<feColorMatrix type="matrix" values="0 0 0 0 0 0 0 0 0 0 0 0 0 0 0 0 0 0 0.25 0"/>
<feBlend mode="normal" in2="BackgroundImageFix" result="effect1_dropShadow_167_632"/>
<feBlend mode="normal" in="SourceGraphic" in2="effect1_dropShadow_167_632" result="shape"/>
</filter>
</defs>
</svg>
